# xmcd
#
# Track frame offsets: 
#        150
#        14281
#        28804
#        46067
#        62084
#        75133
#        91867
#        109881
#        129778
#        148917
#        166558
#
# Disc length: 2385 seconds
#
# Revision: 0
# Processed by: cddbd v1.5.2PL0 Copyright (c) Steve Scherf et al.
# Submitted via: ExactAudioCopy v0.99pb4
#
DISCID=7a094f0b
DTITLE=The Gringo Kings - Thank God For The Cowboy
DYEAR=2007
DGENRE=Country
TTITLE0=Gringo Kings
TTITLE1=Just a Bunch of Boys
TTITLE2=Thank God for the Cowboy
TTITLE3=Beautiful Life
TTITLE4=Cheyenne
TTITLE5=The Famous Cure
TTITLE6=Guts or Glory
TTITLE7=Ever Since You Said Goodbye
TTITLE8=Texas Music
TTITLE9=We were Friends
TTITLE10=Ridin in Heaven A Tribute to Chris Ledoux
EXTD=
EXTT0=
EXTT1=
EXTT2=
EXTT3=
EXTT4=
EXTT5=
EXTT6=
EXTT7=
EXTT8=
EXTT9=
EXTT10=
PLAYORDER=
